<svg width="117" height="134" viewBox="0 0 117 134" xmlns="http://www.w3.org/2000/svg"><title>Page 1</title><path d="M9.434 106.226L0 100.779V33.593L58.185 0l58.184 33.593v67.186l-9.433 5.447V46.119c0-.569-.462-1.031-1.031-1.031h-3.19v33.717l-5.146-7.928-5.145 7.928V45.088h-3.19c-.57 0-1.032.462-1.032 1.03v70.923l-5.224 3.017V46.832c0-.678-.548-1.231-1.241-1.24H61.675a1.245 1.245 0 0 0-1.24 1.24v86.241l-1.606.927a.802.802 0 0 0-.012-.107L43.063 46.88a.844.844 0 0 0-.98-.679l-13.402 2.427a.843.843 0 0 0-.679.979l13.616 75.2-16.879-9.745v-68.26c0-.46-.37-.835-.842-.843h-13.62a.845.845 0 0 0-.843.842v59.425z" fill="#FFF" fill-rule="evenodd"/></svg>