<svg width="71" height="81" viewBox="0 0 71 81" xmlns="http://www.w3.org/2000/svg"><title>Page 1</title><defs><linearGradient x1="50%" y1="0%" x2="50%" y2="100%" id="a"><stop stop-color="#FFCE00" offset="0%"/><stop stop-color="#FF8D00" offset="100%"/></linearGradient></defs><path d="M5.703 64.211L0 60.919V20.306L35.171 0l35.172 20.306V60.92L64.64 64.21V27.878a.624.624 0 0 0-.623-.623H62.09v20.381l-3.11-4.792-3.11 4.792V27.255h-1.93a.624.624 0 0 0-.623.623v42.871l-3.158 1.823V28.31a.753.753 0 0 0-.75-.75H37.281a.752.752 0 0 0-.75.75v52.13l-.97.561a.485.485 0 0 0-.007-.065L26.03 28.338a.51.51 0 0 0-.592-.41l-8.102 1.466a.51.51 0 0 0-.41.592l8.23 45.457-10.203-5.89V28.29a.511.511 0 0 0-.509-.509H6.212a.511.511 0 0 0-.51.51v35.92z" fill="url(#a)" fill-rule="evenodd"/></svg>