<?xml version="1.0" encoding="UTF-8" standalone="no"?>
<svg width="117px" height="134px" viewBox="0 0 117 134" version="1.1" xmlns="http://www.w3.org/2000/svg" xmlns:xlink="http://www.w3.org/1999/xlink">
    <!-- Generator: Sketch 3.7.2 (28276) - http://www.bohemiancoding.com/sketch -->
    <title>Page 1</title>
    <desc>Created with Sketch.</desc>
    <defs></defs>
    <g id="Page-1" stroke="none" stroke-width="1" fill="none" fill-rule="evenodd">
        <g id="Index----Logged-In" transform="translate(-662.000000, -1759.000000)" fill="#FFFFFF">
            <path d="M671.433767,1865.22564 L662,1859.77904 L662,1792.59299 L720.184753,1759 L778.369374,1792.59299 L778.369374,1859.77904 L768.93587,1865.22564 L768.93587,1805.11877 C768.93587,1804.54995 768.473708,1804.08779 767.904893,1804.08779 L764.714526,1804.08779 L764.714526,1837.80521 L759.568859,1829.87736 L754.42385,1837.80521 L754.42385,1804.08779 L751.233484,1804.08779 C750.66401,1804.08779 750.201848,1804.54995 750.201848,1805.11877 L750.201848,1876.04148 L744.977837,1879.05791 L744.977837,1805.83242 C744.977837,1805.15366 744.43009,1804.60065 743.736847,1804.59209 L723.675393,1804.59209 C722.981821,1804.60065 722.4346,1805.15366 722.4346,1805.83242 L722.4346,1892.07311 L720.829146,1893 C720.827566,1892.96438 720.823419,1892.92877 720.816967,1892.89302 L705.062837,1805.87982 C704.980017,1805.42293 704.541358,1805.11877 704.08387,1805.20106 L690.681302,1807.62774 C690.223815,1807.71069 689.919657,1808.14916 690.002477,1808.60671 L703.617889,1883.80719 L686.739034,1874.06215 L686.739034,1805.80148 C686.739034,1805.34129 686.369502,1804.96735 685.896609,1804.95945 L672.276193,1804.95945 C671.8033,1804.96735 671.433767,1805.34129 671.433767,1805.80148 L671.433767,1865.22564 Z" id="Page-1"></path>
        </g>
    </g>
</svg>